<svg width="29" height="32" viewBox="0 0 29 32" fill="none" xmlns="http://www.w3.org/2000/svg">
<path d="M3.14551 13.0955C3.20244 12.3862 3.52445 11.7243 4.04741 11.2418C4.57037 10.7592 5.25591 10.4913 5.9675 10.4915H23.0325C23.7441 10.4913 24.4296 10.7592 24.9526 11.2418C25.4756 11.7243 25.7976 12.3862 25.8545 13.0955L26.9909 27.2479C27.0222 27.6374 26.9725 28.0291 26.8449 28.3984C26.7174 28.7677 26.5147 29.1066 26.2498 29.3938C25.9848 29.6809 25.6633 29.9101 25.3054 30.0669C24.9475 30.2237 24.5611 30.3047 24.1704 30.3049H4.82965C4.43893 30.3047 4.05247 30.2237 3.6946 30.0669C3.33672 29.9101 3.01518 29.6809 2.75023 29.3938C2.48527 29.1066 2.28264 28.7677 2.15508 28.3984C2.02753 28.0291 1.97781 27.6374 2.00907 27.2479L3.14551 13.0955V13.0955Z" stroke="white" stroke-width="3" stroke-linecap="round" stroke-linejoin="round"/>
<path d="M20.161 14.7372V7.66097C20.161 6.15959 19.5645 4.7197 18.5029 3.65806C17.4413 2.59642 16.0014 2 14.5 2C12.9986 2 11.5587 2.59642 10.4971 3.65806C9.43544 4.7197 8.83902 6.15959 8.83902 7.66097V14.7372" stroke="white" stroke-width="3" stroke-linecap="round" stroke-linejoin="round"/>
</svg>
